HIERARCHY
ROOT Hips
{
     OFFSET 13.87060 96.40650 -12.50640
     CHANNELS 6 Xposition Yposition Zposition Zrotation Xrotation Yrotation
     JOINT Spine
     {
          OFFSET 0.00000 11.89050 0.00000
          CHANNELS 3 Zrotation Xrotation Yrotation
          JOINT Spine1
          {
               OFFSET 0.00000 25.65740 0.12766
               CHANNELS 3 Zrotation Xrotation Yrotation
               JOINT HEad
               {
                    OFFSET 0.00000 8.73416 0.01134
                    CHANNELS 3 Zrotation Xrotation Yrotation
                    End Site
                    {
                         OFFSET -0.29000 12.77420 2.51395
                    }
               }
               JOINT LeftShoulder1
               {
                    OFFSET 8.99000 -0.36225 -0.22000
                    CHANNELS 3 Zrotation Xrotation Yrotation
                    JOINT LeftArm
                    {
                         OFFSET 10.28270 -0.00338 0.32212
                         CHANNELS 3 Zrotation Xrotation Yrotation
                         JOINT LeftForeArm
                         {
                              OFFSET 32.76690 0.09914 -1.42434
                              CHANNELS 3 Zrotation Xrotation Yrotation
                              JOINT LeftHand
                              {
                                   OFFSET 27.56430 0.08536 1.02216
                                   CHANNELS 3 Zrotation Xrotation Yrotation
                                   End Site
                                   {
                                        OFFSET 16.74430 -0.60000 1.50291
                                   }
                              }
                         }
                    }
               }
               JOINT RightShoulder
               {
                    OFFSET -8.99000 -0.36225 -0.22000
                    CHANNELS 3 Zrotation Xrotation Yrotation
                    JOINT RightArm
                    {
                         OFFSET -10.28270 -0.00338 0.32212
                         CHANNELS 3 Zrotation Xrotation Yrotation
                         JOINT RightForeArm
                         {
                              OFFSET -32.89710 0.09914 -1.42434
                              CHANNELS 3 Zrotation Xrotation Yrotation
                              JOINT RightHand
                              {
                                   OFFSET -27.49210 0.08536 1.02216
                                   CHANNELS 3 Zrotation Xrotation Yrotation
                                   End Site
                                   {
                                        OFFSET -16.63120 -0.60000 1.50291
                                   }
                              }
                         }
                    }
               }
          }
     }
     JOINT LeftUpLeg
     {
          OFFSET 8.94580 -8.66707 0.10165
          CHANNELS 3 Zrotation Xrotation Yrotation
          JOINT LeftLeg
          {
               OFFSET 0.00000 -44.42270 1.37270
               CHANNELS 3 Zrotation Xrotation Yrotation
               JOINT LeftFoot
               {
                    OFFSET -0.25355 -42.09240 -1.46059
                    CHANNELS 3 Zrotation Xrotation Yrotation
                    JOINT LeftToes
                    {
                         OFFSET -0.04000 -4.41509 8.49910
                         CHANNELS 3 Zrotation Xrotation Yrotation
                         End Site
                         {
                              OFFSET 0.08000 -0.04745 9.77979
                         }
                    }
               }
          }
     }
     JOINT RightUpLeg
     {
          OFFSET -8.94580 -8.66707 0.10165
          CHANNELS 3 Zrotation Xrotation Yrotation
          JOINT RightLeg
          {
               OFFSET 0.00000 -44.42270 1.37270
               CHANNELS 3 Zrotation Xrotation Yrotation
               JOINT RightFoot
               {
                    OFFSET 0.25355 -42.09240 -1.46059
                    CHANNELS 3 Zrotation Xrotation Yrotation
                    JOINT RightToes
                    {
                         OFFSET 0.04000 -4.41509 8.49910
                         CHANNELS 3 Zrotation Xrotation Yrotation
                         End Site
                         {
                              OFFSET -0.08000 -0.13745 9.77979
                         }
                    }
               }
          }
     }
}
MOTION
Frames: 14
Frame Time: 0.01667
13.87060 96.40650 -12.50640 -5.77097 -6.39404 -32.94280 2.19625 6.44408 -1.32852 3.34648 12.90130 -2.66992 -17.66270 14.17760 20.83810 0.00000 0.00000 0.00000 -85.14120 -54.36900 -57.65880 17.35030 34.79190 -107.88300 35.69820 11.89390 10.76320 12.46900 0.76970 2.31202 67.46010 -14.54700 62.70110 3.62263 30.28950 92.73460 -1.83346 9.76944 9.41983 15.80200 -11.99280 6.46077 -6.69362 30.90030 20.81420 -2.42921 -0.98432 0.13209 -20.92090 -18.89210 -15.69580 -1.13805 -9.33755 -1.30893 -7.73734 40.39920 19.02670 13.32480 -34.57340 2.97685 9.58202 37.79400 -5.05190 
13.19290 96.07600 -13.08850 -5.21505 -6.56267 -31.95890 2.22944 6.43372 -1.37003 2.92190 12.90580 -2.65069 -17.82380 14.20330 20.97190 0.00000 0.00000 0.00000 -84.44200 -54.43440 -57.61080 17.52220 34.66460 -107.70900 35.49480 11.79940 10.49580 12.51350 0.79520 2.46696 67.05780 -13.99410 61.62320 2.76270 30.08170 93.96950 -1.51118 9.81245 8.72357 16.15650 -13.02480 6.19827 -7.24055 31.68880 19.93880 -3.02786 -0.35992 0.17972 -20.78020 -18.65170 -15.80330 -1.25097 -10.02230 -2.63679 -7.71042 41.61630 18.12990 11.65460 -35.27950 2.63294 9.34515 37.20620 -4.80992 
12.44620 95.89250 -13.79640 -4.54346 -6.78926 -30.49490 2.27968 6.45570 -1.41786 2.41356 12.98240 -2.63657 -17.85900 14.30360 20.83060 0.00000 0.00000 0.00000 -83.86380 -54.22750 -57.93490 17.93220 34.50780 -107.71600 35.18740 11.77960 10.48950 12.57730 0.81995 2.61131 66.60560 -13.49940 60.81850 1.60393 29.81690 95.51900 -1.09125 9.86252 7.84229 16.70020 -14.23970 5.84955 -8.21858 32.33820 18.68950 -4.20134 0.44348 0.27911 -18.51590 -16.26760 -15.33440 -1.58915 -10.50970 -3.69628 -7.02188 42.50220 16.62610 10.00250 -35.64020 2.23953 9.03122 36.23560 -4.69691 
11.61890 95.87070 -14.63800 -3.76597 -7.04201 -28.44050 2.36690 6.49674 -1.46910 1.86204 13.10940 -2.63324 -17.84550 14.56460 20.33950 0.00000 0.00000 0.00000 -83.36850 -53.53650 -58.58300 18.49630 34.22910 -107.82300 34.77670 11.83850 10.76440 12.64370 0.83381 2.68371 66.14880 -13.10460 60.32450 0.31454 29.51670 97.14640 -0.54289 9.91843 6.82658 17.55710 -15.83480 5.55493 -9.65959 32.98180 17.17040 -6.23581 1.71182 0.48436 -13.69030 -10.93870 -14.74050 -2.08206 -10.76740 -4.49846 -5.73842 42.98980 14.44140 8.67579 -35.71380 1.89848 8.78453 35.44000 -4.63582 
10.70790 96.00750 -15.59880 -2.87406 -7.31051 -25.81060 2.47152 6.53672 -1.51118 1.27658 13.25270 -2.63183 -17.74440 15.08480 19.46130 0.00000 0.00000 0.00000 -83.12680 -52.48230 -59.62480 19.07820 34.02720 -108.03100 34.34300 11.93550 11.17970 12.66940 0.83401 2.67839 65.74970 -12.82650 60.14980 -0.93241 29.22850 98.56380 0.10996 9.97323 5.73375 18.74400 -17.90590 5.53732 -11.45780 33.66110 15.72410 -9.14105 3.73532 0.87121 -6.29868 -2.45859 -14.83070 -2.66787 -10.79350 -5.14380 -4.12282 43.05340 11.76710 8.02215 -35.68750 1.72536 8.78565 35.33510 -4.77331 
9.72264 96.28570 -16.63910 -1.82643 -7.65202 -22.77740 2.50212 6.57950 -1.52155 0.58560 13.41880 -2.59018 -17.38120 15.91600 18.20450 0.00000 0.00000 0.00000 -82.90940 -51.17880 -60.85560 19.50890 33.88000 -108.23000 34.04710 12.01880 11.52740 12.61220 0.82751 2.65120 65.47940 -12.65590 60.32090 -2.04921 29.01420 99.51530 0.78559 10.01660 4.58016 20.13230 -20.36430 5.99582 -13.43490 34.36730 14.83060 -12.54250 6.64053 1.51058 2.77369 7.66247 -16.12890 -3.35261 -10.57480 -5.67121 -2.46458 42.72780 8.86560 8.17327 -35.69190 1.76522 9.10072 36.02850 -5.24479 
8.68034 96.70500 -17.72000 -0.57163 -8.15793 -19.62900 2.35816 6.65628 -1.45559 -0.32740 13.66740 -2.42076 -16.61480 17.01770 16.61480 0.00000 0.00000 0.00000 -82.45130 -49.74450 -62.09310 19.69610 33.70960 -108.30600 34.11560 12.05820 11.64540 12.44560 0.82441 2.67412 65.40200 -12.57330 60.89940 -3.08110 28.92250 99.82730 1.37577 10.04010 3.38171 21.56010 -22.97510 6.96442 -15.50300 35.10570 14.95980 -15.76860 10.22570 2.38767 11.54790 16.57450 -18.14330 -4.16332 -10.05610 -6.02541 -0.98607 42.00920 5.94572 8.96694 -35.66400 1.97066 9.65479 37.22810 -6.01724 
7.59929 97.26050 -18.80790 0.94751 -8.88777 -16.61840 1.91483 6.81910 -1.27436 -1.54885 14.08020 -2.02929 -15.43690 18.27430 14.75740 0.00000 0.00000 0.00000 -81.65650 -48.22880 -63.29230 19.63910 33.40790 -108.16900 34.61810 12.04720 11.49380 12.14840 0.82986 2.78892 65.57430 -12.55910 61.95910 -4.16175 28.98500 99.39400 1.80870 10.04360 2.22951 22.94000 -25.59750 8.29518 -17.77500 36.10830 16.40880 -18.05870 13.79680 3.29170 17.96940 22.43780 -19.86390 -5.13169 -9.20272 -6.12766 0.17506 40.91570 3.14839 10.12650 -35.51640 2.26035 10.36680 38.66280 -7.00563 
6.49184 97.94220 -19.88170 2.73659 -9.82900 -13.87120 1.12367 7.10754 -0.96382 -3.07283 14.70560 -1.36262 -13.88710 19.55550 12.68450 0.00000 0.00000 0.00000 -80.63920 -46.61910 -64.51150 19.35750 32.88330 -107.75300 35.33300 11.96980 11.08360 11.70940 0.84038 2.98271 66.02060 -12.58720 63.53770 -5.44157 29.22250 98.15900 2.08192 10.03540 1.25583 24.32480 -28.24780 9.83239 -20.42210 37.71770 19.11130 -18.95520 16.47220 3.89035 21.22430 25.19090 -20.87730 -6.25093 -8.00121 -5.95131 1.00140 39.44800 0.55316 11.35760 -35.20550 2.54830 11.23420 40.23290 -8.24274 
5.36309 98.72140 -20.92190 4.72769 -10.91760 -11.40200 0.04188 7.52602 -0.53362 -4.81579 15.53090 -0.42147 -11.99300 20.78400 10.42900 0.00000 0.00000 0.00000 -79.62310 -44.91840 -65.82420 18.82720 32.14680 -107.02800 35.94080 11.79040 10.38390 11.13680 0.84840 3.21109 66.71880 -12.62440 65.60540 -7.08134 29.65120 96.13460 2.26065 10.02540 0.53750 25.87230 -30.99030 11.57580 -23.49830 40.12700 22.64140 -18.62680 17.79810 4.02836 21.89830 25.71390 -21.33170 -7.47064 -6.46685 -5.54832 1.57369 37.60810 -1.80004 12.31190 -34.66630 2.73223 12.21320 41.73620 -9.75028 
4.21489 99.54990 -21.90650 6.82340 -12.07330 -9.18519 -1.22423 8.04734 -0.00975 -6.68272 16.49690 0.74601 -9.83268 21.95540 8.04729 0.00000 0.00000 0.00000 -78.86200 -43.24060 -67.29310 18.01020 31.36760 -106.07600 36.29720 11.48250 9.34157 10.43800 0.84965 3.44982 67.20050 -12.34130 67.97390 -9.30049 29.72360 93.32040 2.54319 10.02360 0.05291 27.76880 -33.82230 13.64530 -26.95150 43.22420 26.49380 -17.69680 18.07420 3.85927 21.39250 25.26600 -21.48530 -8.73007 -4.65890 -5.02590 1.98701 35.43020 -3.86935 12.65080 -33.78140 2.71320 13.09530 42.78020 -11.31400 
3.05200 100.37000 -22.81740 8.95371 -13.21950 -7.19443 -2.58122 8.62718 0.56965 -8.61605 17.52240 2.05825 -7.55388 23.10400 5.64516 0.00000 0.00000 0.00000 -78.55630 -41.78510 -68.94640 16.92650 30.79080 -105.10700 36.48500 11.05570 7.96657 9.60341 0.84459 3.71359 65.85010 -10.83050 70.18310 -12.29160 27.55180 89.33060 3.26896 10.04040 -0.25179 30.17430 -36.67080 16.18320 -30.72760 46.69190 30.33930 -16.75680 18.01220 3.63615 21.06110 24.96470 -21.66420 -9.99942 -2.67974 -4.48997 2.30173 33.00070 -5.59578 12.24120 -32.49150 2.46694 13.62590 43.07660 -12.59150 
1.89293 101.11700 -23.62240 11.10570 -14.29610 -5.36133 -4.01752 9.24675 1.13657 -10.60140 18.54240 3.42427 -5.27592 24.24150 3.34414 0.00000 0.00000 0.00000 -78.75910 -40.69770 -70.74820 15.67020 30.58260 -104.35400 36.67050 10.55630 6.37983 8.62053 0.83565 4.04026 63.75200 -9.01125 72.53100 -15.60800 24.97130 84.09160 4.04422 10.06360 -0.34917 33.17680 -39.47020 19.35050 -34.81320 50.28770 34.06000 -16.09520 18.06320 3.49280 21.45760 25.25200 -22.09260 -11.30530 -0.65290 -4.00484 2.54369 30.52470 -6.93371 11.31790 -30.96230 2.09567 13.75380 42.68700 -13.47050 
0.75278 101.76600 -24.34390 13.23840 -15.30750 -3.67206 -5.40344 9.85296 1.67670 -12.60870 19.50910 4.76456 -3.02580 25.31880 1.20917 0.00000 0.00000 0.00000 -79.36180 -39.97100 -72.62540 14.36610 30.74480 -103.93600 36.96260 10.04660 4.77913 7.49200 0.82332 4.45945 60.82490 -7.06534 74.98820 -18.80140 22.26360 77.41690 4.57573 10.08860 -0.19962 36.80930 -42.08240 23.33320 -39.00230 53.88310 37.55690 -15.78300 18.24870 3.44638 22.42830 25.98810 -22.71210 -12.63640 1.37770 -3.61150 2.70032 28.12740 -7.77193 10.36830 -29.47530 1.75240 13.74620 42.07490 -14.23580 
